<svg xmlns="http://www.w3.org/2000/svg" xmlns:xlink="http://www.w3.org/1999/xlink" width="1080" zoomAndPan="magnify" viewBox="0 0 810 67.499998" height="90" preserveAspectRatio="xMidYMid meet" version="1.0"><defs><g/><clipPath id="9e98606ad8"><path d="M 1 0.148438 L 11.960938 0.148438 L 11.960938 11 L 1 11 Z M 1 0.148438 " clip-rule="nonzero"/></clipPath><clipPath id="8a008daa0c"><rect x="0" width="12" y="0" height="13"/></clipPath></defs><g fill="#000000" fill-opacity="1"><g transform="translate(372.739256, 55.340067)"><g><path d="M 1.96875 -46.125 L 24.015625 -46.125 C 25.816406 -46.125 27.515625 -45.953125 29.109375 -45.609375 C 30.710938 -45.265625 32.1875 -44.769531 33.53125 -44.125 C 34.875 -43.476562 36.082031 -42.695312 37.15625 -41.78125 C 38.226562 -40.863281 39.132812 -39.820312 39.875 -38.65625 C 40.625 -37.5 41.195312 -36.234375 41.59375 -34.859375 C 41.988281 -33.484375 42.1875 -32.019531 42.1875 -30.46875 C 42.1875 -28.914062 41.988281 -27.445312 41.59375 -26.0625 C 41.195312 -24.6875 40.625 -23.414062 39.875 -22.25 C 39.132812 -21.09375 38.222656 -20.050781 37.140625 -19.125 C 36.066406 -18.195312 34.859375 -17.410156 33.515625 -16.765625 C 32.171875 -16.128906 30.695312 -15.640625 29.09375 -15.296875 C 27.5 -14.953125 25.804688 -14.78125 24.015625 -14.78125 L 13.875 -14.78125 L 13.875 0 L 1.96875 0 Z M 23.46875 -24.265625 C 24.539062 -24.265625 25.5 -24.398438 26.34375 -24.671875 C 27.1875 -24.953125 27.898438 -25.359375 28.484375 -25.890625 C 29.078125 -26.421875 29.523438 -27.070312 29.828125 -27.84375 C 30.140625 -28.613281 30.296875 -29.488281 30.296875 -30.46875 C 30.296875 -31.4375 30.140625 -32.300781 29.828125 -33.0625 C 29.523438 -33.832031 29.082031 -34.484375 28.5 -35.015625 C 27.914062 -35.546875 27.203125 -35.945312 26.359375 -36.21875 C 25.523438 -36.5 24.578125 -36.640625 23.515625 -36.640625 L 13.875 -36.640625 L 13.875 -24.265625 Z M 23.46875 -24.265625 "/></g></g></g><g fill="#000000" fill-opacity="1"><g transform="translate(417.86738, 55.340067)"><g><path d="M 1.96875 0 L 1.96875 -46.140625 L 25.015625 -46.140625 C 27.753906 -46.140625 30.191406 -45.8125 32.328125 -45.15625 C 34.460938 -44.507812 36.265625 -43.578125 37.734375 -42.359375 C 39.203125 -41.148438 40.316406 -39.671875 41.078125 -37.921875 C 41.835938 -36.179688 42.21875 -34.210938 42.21875 -32.015625 C 42.21875 -30.109375 41.914062 -28.378906 41.3125 -26.828125 C 40.71875 -25.273438 39.863281 -23.941406 38.75 -22.828125 C 37.632812 -21.710938 36.289062 -20.835938 34.71875 -20.203125 C 33.144531 -19.578125 31.378906 -19.226562 29.421875 -19.15625 C 31.316406 -19.03125 32.984375 -18.363281 34.421875 -17.15625 C 35.859375 -15.945312 37.09375 -14.191406 38.125 -11.890625 L 43.46875 0 L 30.21875 0 L 24.796875 -11.875 C 24.367188 -12.800781 23.96875 -13.5625 23.59375 -14.15625 C 23.21875 -14.75 22.8125 -15.21875 22.375 -15.5625 C 21.9375 -15.90625 21.445312 -16.144531 20.90625 -16.28125 C 20.363281 -16.414062 19.710938 -16.484375 18.953125 -16.484375 L 13.875 -16.484375 L 13.875 0 Z M 23.703125 -25.671875 C 24.765625 -25.671875 25.703125 -25.796875 26.515625 -26.046875 C 27.328125 -26.296875 28.015625 -26.65625 28.578125 -27.125 C 29.140625 -27.601562 29.566406 -28.1875 29.859375 -28.875 C 30.160156 -29.570312 30.3125 -30.359375 30.3125 -31.234375 C 30.3125 -33.003906 29.742188 -34.347656 28.609375 -35.265625 C 27.472656 -36.191406 25.832031 -36.65625 23.6875 -36.65625 L 13.875 -36.65625 L 13.875 -25.671875 Z M 23.703125 -25.671875 "/></g></g></g><g fill="#000000" fill-opacity="1"><g transform="translate(464.269681, 55.340067)"><g><path d="M 34.1875 -46.125 L 34.1875 -36.265625 L 13.875 -36.265625 L 13.875 -27.625 L 32.359375 -27.625 L 32.359375 -18.4375 L 13.875 -18.4375 L 13.875 -9.875 L 34.734375 -9.875 L 34.734375 0 L 1.96875 0 L 1.96875 -46.125 Z M 34.1875 -46.125 "/></g></g></g><g fill="#000000" fill-opacity="1"><g transform="translate(501.930256, 55.340067)"><g><path d="M 57.484375 -46.125 L 57.484375 0 L 45.578125 0 L 45.578125 -36.140625 L 35.390625 0 L 23.453125 0 L 13.328125 -36.15625 L 13.328125 0 L 1.96875 0 L 1.96875 -46.125 L 20.734375 -46.125 L 30.046875 -12.875 L 39.40625 -46.125 Z M 57.484375 -46.125 "/></g></g></g><g fill="#000000" fill-opacity="1"><g transform="translate(563.316061, 55.340067)"><g><path d="M 13.875 0 L 1.96875 0 L 1.96875 -46.125 L 13.875 -46.125 Z M 13.875 0 "/></g></g></g><g fill="#000000" fill-opacity="1"><g transform="translate(580.767444, 55.340067)"><g><path d="M 1.96875 -46.125 L 13.875 -46.125 L 13.875 -19.453125 C 13.875 -17.617188 14.054688 -16.046875 14.421875 -14.734375 C 14.785156 -13.421875 15.320312 -12.335938 16.03125 -11.484375 C 16.75 -10.628906 17.632812 -10 18.6875 -9.59375 C 19.75 -9.195312 20.960938 -9 22.328125 -9 C 23.703125 -9 24.914062 -9.195312 25.96875 -9.59375 C 27.019531 -10 27.898438 -10.628906 28.609375 -11.484375 C 29.316406 -12.335938 29.851562 -13.421875 30.21875 -14.734375 C 30.59375 -16.046875 30.78125 -17.617188 30.78125 -19.453125 L 30.78125 -46.125 L 42.671875 -46.125 L 42.671875 -18.390625 C 42.671875 -15.273438 42.171875 -12.515625 41.171875 -10.109375 C 40.171875 -7.710938 38.769531 -5.691406 36.96875 -4.046875 C 35.175781 -2.398438 33.035156 -1.148438 30.546875 -0.296875 C 28.054688 0.546875 25.316406 0.96875 22.328125 0.96875 C 20.335938 0.96875 18.453125 0.773438 16.671875 0.390625 C 14.898438 0.015625 13.257812 -0.539062 11.75 -1.28125 C 10.238281 -2.03125 8.878906 -2.953125 7.671875 -4.046875 C 6.472656 -5.140625 5.445312 -6.40625 4.59375 -7.84375 C 3.75 -9.28125 3.097656 -10.878906 2.640625 -12.640625 C 2.191406 -14.398438 1.96875 -16.316406 1.96875 -18.390625 Z M 1.96875 -46.125 "/></g></g></g><g fill="#000000" fill-opacity="1"><g transform="translate(627.024588, 55.340067)"><g><path d="M 57.484375 -46.125 L 57.484375 0 L 45.578125 0 L 45.578125 -36.140625 L 35.390625 0 L 23.453125 0 L 13.328125 -36.15625 L 13.328125 0 L 1.96875 0 L 1.96875 -46.125 L 20.734375 -46.125 L 30.046875 -12.875 L 39.40625 -46.125 Z M 57.484375 -46.125 "/></g></g></g><g transform="matrix(1, 0, 0, 1, 690, 7)"><g clip-path="url(#8a008daa0c)"><g clip-path="url(#9e98606ad8)"><g fill="#000000" fill-opacity="1"><g transform="translate(0.659714, 9.596339)"><g><path d="M 5.578125 -9.234375 C 6.054688 -9.234375 6.515625 -9.171875 6.953125 -9.046875 C 7.390625 -8.929688 7.796875 -8.765625 8.171875 -8.546875 C 8.554688 -8.328125 8.898438 -8.066406 9.203125 -7.765625 C 9.503906 -7.460938 9.765625 -7.117188 9.984375 -6.734375 C 10.203125 -6.359375 10.367188 -5.953125 10.484375 -5.515625 C 10.609375 -5.078125 10.671875 -4.617188 10.671875 -4.140625 C 10.671875 -3.648438 10.609375 -3.179688 10.484375 -2.734375 C 10.367188 -2.296875 10.195312 -1.882812 9.96875 -1.5 C 9.75 -1.113281 9.484375 -0.765625 9.171875 -0.453125 C 8.867188 -0.140625 8.523438 0.125 8.140625 0.34375 C 7.753906 0.5625 7.34375 0.726562 6.90625 0.84375 C 6.46875 0.96875 6.003906 1.03125 5.515625 1.03125 C 5.035156 1.03125 4.578125 0.96875 4.140625 0.84375 C 3.703125 0.726562 3.289062 0.5625 2.90625 0.34375 C 2.53125 0.125 2.1875 -0.132812 1.875 -0.4375 C 1.570312 -0.75 1.3125 -1.09375 1.09375 -1.46875 C 0.875 -1.851562 0.703125 -2.265625 0.578125 -2.703125 C 0.460938 -3.140625 0.40625 -3.597656 0.40625 -4.078125 C 0.40625 -4.566406 0.460938 -5.03125 0.578125 -5.46875 C 0.703125 -5.914062 0.875 -6.328125 1.09375 -6.703125 C 1.320312 -7.085938 1.585938 -7.429688 1.890625 -7.734375 C 2.203125 -8.046875 2.550781 -8.3125 2.9375 -8.53125 C 3.320312 -8.757812 3.734375 -8.929688 4.171875 -9.046875 C 4.617188 -9.171875 5.085938 -9.234375 5.578125 -9.234375 Z M 5.578125 -8.328125 C 5.171875 -8.328125 4.785156 -8.28125 4.421875 -8.1875 C 4.066406 -8.09375 3.734375 -7.953125 3.421875 -7.765625 C 3.109375 -7.585938 2.828125 -7.375 2.578125 -7.125 C 2.335938 -6.875 2.128906 -6.585938 1.953125 -6.265625 C 1.773438 -5.953125 1.640625 -5.613281 1.546875 -5.25 C 1.453125 -4.882812 1.40625 -4.5 1.40625 -4.09375 C 1.40625 -3.6875 1.453125 -3.300781 1.546875 -2.9375 C 1.640625 -2.570312 1.769531 -2.234375 1.9375 -1.921875 C 2.113281 -1.609375 2.320312 -1.320312 2.5625 -1.0625 C 2.8125 -0.8125 3.085938 -0.597656 3.390625 -0.421875 C 3.691406 -0.242188 4.019531 -0.109375 4.375 -0.015625 C 4.738281 0.078125 5.113281 0.125 5.5 0.125 C 5.894531 0.125 6.269531 0.078125 6.625 -0.015625 C 6.988281 -0.109375 7.328125 -0.242188 7.640625 -0.421875 C 7.953125 -0.609375 8.226562 -0.832031 8.46875 -1.09375 C 8.71875 -1.351562 8.929688 -1.640625 9.109375 -1.953125 C 9.285156 -2.273438 9.421875 -2.617188 9.515625 -2.984375 C 9.617188 -3.359375 9.671875 -3.753906 9.671875 -4.171875 C 9.671875 -4.566406 9.625 -4.945312 9.53125 -5.3125 C 9.4375 -5.675781 9.300781 -6.007812 9.125 -6.3125 C 8.957031 -6.625 8.75 -6.898438 8.5 -7.140625 C 8.257812 -7.390625 7.988281 -7.601562 7.6875 -7.78125 C 7.382812 -7.957031 7.054688 -8.09375 6.703125 -8.1875 C 6.347656 -8.28125 5.972656 -8.328125 5.578125 -8.328125 Z M 4.625 -1.6875 L 3.640625 -1.6875 L 3.640625 -6.40625 L 6.015625 -6.40625 C 6.253906 -6.40625 6.476562 -6.367188 6.6875 -6.296875 C 6.894531 -6.234375 7.070312 -6.140625 7.21875 -6.015625 C 7.363281 -5.898438 7.476562 -5.753906 7.5625 -5.578125 C 7.644531 -5.410156 7.6875 -5.222656 7.6875 -5.015625 C 7.6875 -4.773438 7.628906 -4.5625 7.515625 -4.375 C 7.410156 -4.195312 7.257812 -4.054688 7.0625 -3.953125 C 6.863281 -3.847656 6.628906 -3.789062 6.359375 -3.78125 C 6.703125 -3.757812 6.984375 -3.515625 7.203125 -3.046875 L 7.8125 -1.6875 L 6.75 -1.6875 L 6.140625 -2.9375 C 6.085938 -3.039062 6.023438 -3.125 5.953125 -3.1875 C 5.890625 -3.257812 5.804688 -3.304688 5.703125 -3.328125 C 5.597656 -3.359375 5.472656 -3.375 5.328125 -3.375 L 4.625 -3.375 Z M 4.625 -4.3125 L 5.734375 -4.3125 C 6.035156 -4.3125 6.269531 -4.363281 6.4375 -4.46875 C 6.601562 -4.570312 6.6875 -4.71875 6.6875 -4.90625 C 6.6875 -5.082031 6.601562 -5.21875 6.4375 -5.3125 C 6.28125 -5.414062 6.046875 -5.46875 5.734375 -5.46875 L 4.625 -5.46875 Z M 4.625 -4.3125 "/></g></g></g></g></g></g><g fill="#000000" fill-opacity="1"><g transform="translate(108.160689, 55.340067)"><g><path d="M 1.375 -17.578125 L 1.375 -20.15625 L 8.140625 -20.15625 L 8.140625 -17.4375 C 8.140625 -15.6875 8.414062 -14.070312 8.96875 -12.59375 C 9.519531 -11.113281 10.289062 -9.828125 11.28125 -8.734375 C 12.269531 -7.648438 13.4375 -6.8125 14.78125 -6.21875 C 16.132812 -5.625 17.609375 -5.328125 19.203125 -5.328125 C 20.492188 -5.328125 21.707031 -5.519531 22.84375 -5.90625 C 23.976562 -6.300781 25.007812 -6.863281 25.9375 -7.59375 C 26.863281 -8.320312 27.660156 -9.191406 28.328125 -10.203125 C 28.992188 -11.222656 29.503906 -12.351562 29.859375 -13.59375 C 30.222656 -14.84375 30.40625 -16.171875 30.40625 -17.578125 L 30.40625 -46.125 L 37.171875 -46.125 L 37.171875 -17.578125 C 37.171875 -15.328125 36.898438 -13.25 36.359375 -11.34375 C 35.816406 -9.4375 35.03125 -7.722656 34 -6.203125 C 32.96875 -4.691406 31.71875 -3.398438 30.25 -2.328125 C 28.789062 -1.253906 27.140625 -0.4375 25.296875 0.125 C 23.453125 0.6875 21.453125 0.96875 19.296875 0.96875 C 17.117188 0.96875 15.109375 0.6875 13.265625 0.125 C 11.421875 -0.4375 9.765625 -1.253906 8.296875 -2.328125 C 6.828125 -3.398438 5.578125 -4.691406 4.546875 -6.203125 C 3.515625 -7.722656 2.726562 -9.4375 2.1875 -11.34375 C 1.644531 -13.25 1.375 -15.328125 1.375 -17.578125 Z M 1.375 -17.578125 "/></g></g></g><g fill="#000000" fill-opacity="1"><g transform="translate(147.595323, 55.340067)"><g><path d="M 7.59375 0 L 0.5625 0 L 17.765625 -46.125 L 27.921875 -46.125 L 44.890625 0 L 37.6875 0 L 33.484375 -11.5625 L 11.875 -11.5625 Z M 14.125 -17.6875 L 31.234375 -17.6875 L 22.765625 -41.015625 Z M 14.125 -17.6875 "/></g></g></g><g fill="#000000" fill-opacity="1"><g transform="translate(194.981474, 55.340067)"><g><path d="M 2.734375 0 L 2.734375 -46.125 L 24.125 -46.125 C 26.050781 -46.125 27.851562 -45.882812 29.53125 -45.40625 C 31.21875 -44.9375 32.742188 -44.265625 34.109375 -43.390625 C 35.472656 -42.523438 36.640625 -41.476562 37.609375 -40.25 C 38.585938 -39.03125 39.335938 -37.664062 39.859375 -36.15625 C 40.390625 -34.65625 40.65625 -33.039062 40.65625 -31.3125 C 40.65625 -29.570312 40.390625 -27.941406 39.859375 -26.421875 C 39.335938 -24.898438 38.585938 -23.523438 37.609375 -22.296875 C 36.628906 -21.066406 35.457031 -20.007812 34.09375 -19.125 C 32.726562 -18.25 31.207031 -17.570312 29.53125 -17.09375 C 27.851562 -16.613281 26.050781 -16.375 24.125 -16.375 L 9.515625 -16.375 L 9.515625 0 Z M 9.515625 -22.65625 L 23.59375 -22.65625 C 25.164062 -22.65625 26.585938 -22.859375 27.859375 -23.265625 C 29.128906 -23.671875 30.210938 -24.25 31.109375 -25 C 32.003906 -25.75 32.691406 -26.65625 33.171875 -27.71875 C 33.648438 -28.78125 33.890625 -29.972656 33.890625 -31.296875 C 33.890625 -32.609375 33.648438 -33.789062 33.171875 -34.84375 C 32.703125 -35.894531 32.023438 -36.789062 31.140625 -37.53125 C 30.253906 -38.269531 29.1875 -38.835938 27.9375 -39.234375 C 26.6875 -39.640625 25.28125 -39.84375 23.71875 -39.84375 L 9.515625 -39.84375 Z M 9.515625 -22.65625 "/></g></g></g><g fill="#000000" fill-opacity="1"><g transform="translate(239.674137, 55.340067)"><g><path d="M 33.3125 -58.859375 L 26.3125 -48.546875 L 21.796875 -48.546875 L 26.859375 -58.859375 Z M 2.265625 -23.0625 C 2.265625 -25.925781 2.601562 -28.585938 3.28125 -31.046875 C 3.957031 -33.503906 4.925781 -35.71875 6.1875 -37.6875 C 7.457031 -39.664062 8.984375 -41.351562 10.765625 -42.75 C 12.554688 -44.15625 14.566406 -45.226562 16.796875 -45.96875 C 19.023438 -46.71875 21.4375 -47.09375 24.03125 -47.09375 C 26.625 -47.09375 29.035156 -46.71875 31.265625 -45.96875 C 33.492188 -45.226562 35.503906 -44.15625 37.296875 -42.75 C 39.085938 -41.351562 40.617188 -39.664062 41.890625 -37.6875 C 43.160156 -35.71875 44.132812 -33.503906 44.8125 -31.046875 C 45.488281 -28.585938 45.828125 -25.925781 45.828125 -23.0625 C 45.828125 -20.207031 45.488281 -17.546875 44.8125 -15.078125 C 44.132812 -12.617188 43.160156 -10.398438 41.890625 -8.421875 C 40.617188 -6.453125 39.085938 -4.769531 37.296875 -3.375 C 35.503906 -1.976562 33.492188 -0.90625 31.265625 -0.15625 C 29.035156 0.59375 26.625 0.96875 24.03125 0.96875 C 21.4375 0.96875 19.023438 0.59375 16.796875 -0.15625 C 14.566406 -0.90625 12.554688 -1.976562 10.765625 -3.375 C 8.984375 -4.769531 7.457031 -6.453125 6.1875 -8.421875 C 4.925781 -10.398438 3.957031 -12.617188 3.28125 -15.078125 C 2.601562 -17.546875 2.265625 -20.207031 2.265625 -23.0625 Z M 9.03125 -23.0625 C 9.03125 -20.289062 9.367188 -17.8125 10.046875 -15.625 C 10.734375 -13.4375 11.722656 -11.570312 13.015625 -10.03125 C 14.316406 -8.5 15.890625 -7.332031 17.734375 -6.53125 C 19.585938 -5.726562 21.6875 -5.328125 24.03125 -5.328125 C 26.375 -5.328125 28.472656 -5.726562 30.328125 -6.53125 C 32.179688 -7.332031 33.753906 -8.5 35.046875 -10.03125 C 36.347656 -11.570312 37.335938 -13.4375 38.015625 -15.625 C 38.703125 -17.8125 39.046875 -20.289062 39.046875 -23.0625 C 39.046875 -25.832031 38.703125 -28.3125 38.015625 -30.5 C 37.335938 -32.695312 36.347656 -34.5625 35.046875 -36.09375 C 33.753906 -37.625 32.179688 -38.789062 30.328125 -39.59375 C 28.472656 -40.40625 26.375 -40.8125 24.03125 -40.8125 C 21.6875 -40.8125 19.585938 -40.40625 17.734375 -39.59375 C 15.890625 -38.789062 14.316406 -37.625 13.015625 -36.09375 C 11.722656 -34.5625 10.734375 -32.695312 10.046875 -30.5 C 9.367188 -28.3125 9.03125 -25.832031 9.03125 -23.0625 Z M 9.03125 -23.0625 "/></g></g></g><g fill="#000000" fill-opacity="1"><g transform="translate(289.689252, 55.340067)"><g><path d="M 43.6875 -46.125 L 43.6875 0 L 32.6875 0 L 9.359375 -41.796875 L 9.359375 0 L 2.734375 0 L 2.734375 -46.125 L 14.703125 -46.125 L 37.078125 -6.0625 L 37.078125 -46.125 Z M 43.6875 -46.125 "/></g></g></g><path stroke-linecap="butt" transform="matrix(0.00000000129937, -0.744485, 0.744485, 0.00000000129937, 352.724119, 56.389111)" fill="none" stroke-linejoin="miter" d="M -0.00203384 2.002357 L 62.383773 2.002356 " stroke="#000000" stroke-width="4" stroke-opacity="1" stroke-miterlimit="4"/></svg>