<svg xmlns="http://www.w3.org/2000/svg" xmlns:xlink="http://www.w3.org/1999/xlink" width="900" zoomAndPan="magnify" viewBox="0 0 675 225" height="300" preserveAspectRatio="xMidYMid meet" version="1.0"><defs><g/><clipPath id="f48a8392ed"><path d="M 102 0.0390625 L 133 0.0390625 L 133 43 L 102 43 Z M 102 0.0390625 " clip-rule="nonzero"/></clipPath><clipPath id="d758442904"><path d="M 415 172 L 624 172 L 624 206.441406 L 415 206.441406 Z M 415 172 " clip-rule="nonzero"/></clipPath><clipPath id="b9a619e564"><path d="M 22 0.359375 L 25 0.359375 L 25 28 L 22 28 Z M 22 0.359375 " clip-rule="nonzero"/></clipPath><clipPath id="692c6cd8f4"><path d="M 166 0.359375 L 185 0.359375 L 185 28 L 166 28 Z M 166 0.359375 " clip-rule="nonzero"/></clipPath><clipPath id="62bbd48218"><rect x="0" width="209" y="0" height="35"/></clipPath><clipPath id="bbc0d63822"><rect x="0" width="644" y="0" height="207"/></clipPath></defs><g transform="matrix(1, 0, 0, 1, 16, 5)"><g clip-path="url(#bbc0d63822)"><g fill="#000000" fill-opacity="1"><g transform="translate(2.827896, 41.870532)"><g><path d="M 0.953125 -12.21875 L 0.953125 -14.015625 L 5.65625 -14.015625 L 5.65625 -12.125 C 5.65625 -10.90625 5.847656 -9.78125 6.234375 -8.75 C 6.617188 -7.726562 7.15625 -6.835938 7.84375 -6.078125 C 8.53125 -5.328125 9.34375 -4.742188 10.28125 -4.328125 C 11.21875 -3.910156 12.242188 -3.703125 13.359375 -3.703125 C 14.253906 -3.703125 15.09375 -3.835938 15.875 -4.109375 C 16.664062 -4.378906 17.382812 -4.769531 18.03125 -5.28125 C 18.675781 -5.789062 19.226562 -6.398438 19.6875 -7.109375 C 20.15625 -7.816406 20.515625 -8.597656 20.765625 -9.453125 C 21.015625 -10.316406 21.140625 -11.238281 21.140625 -12.21875 L 21.140625 -32.078125 L 25.84375 -32.078125 L 25.84375 -12.21875 C 25.84375 -10.65625 25.65625 -9.210938 25.28125 -7.890625 C 24.90625 -6.566406 24.359375 -5.375 23.640625 -4.3125 C 22.921875 -3.257812 22.050781 -2.359375 21.03125 -1.609375 C 20.019531 -0.867188 18.875 -0.304688 17.59375 0.078125 C 16.3125 0.472656 14.914062 0.671875 13.40625 0.671875 C 11.894531 0.671875 10.5 0.472656 9.21875 0.078125 C 7.9375 -0.304688 6.785156 -0.867188 5.765625 -1.609375 C 4.742188 -2.359375 3.875 -3.257812 3.15625 -4.3125 C 2.445312 -5.375 1.898438 -6.566406 1.515625 -7.890625 C 1.140625 -9.210938 0.953125 -10.65625 0.953125 -12.21875 Z M 0.953125 -12.21875 "/></g></g></g><g fill="#000000" fill-opacity="1"><g transform="translate(32.486134, 41.870532)"><g><path d="M 5.28125 0 L 0.390625 0 L 12.34375 -32.078125 L 19.40625 -32.078125 L 31.203125 0 L 26.203125 0 L 23.28125 -8.046875 L 8.25 -8.046875 Z M 9.828125 -12.296875 L 21.71875 -12.296875 L 15.828125 -28.515625 Z M 9.828125 -12.296875 "/></g></g></g><g fill="#000000" fill-opacity="1"><g transform="translate(67.672582, 41.870532)"><g><path d="M 1.90625 0 L 1.90625 -32.078125 L 16.78125 -32.078125 C 18.113281 -32.078125 19.363281 -31.910156 20.53125 -31.578125 C 21.707031 -31.253906 22.769531 -30.785156 23.71875 -30.171875 C 24.664062 -29.566406 25.476562 -28.835938 26.15625 -27.984375 C 26.832031 -27.140625 27.351562 -26.191406 27.71875 -25.140625 C 28.082031 -24.097656 28.265625 -22.972656 28.265625 -21.765625 C 28.265625 -20.566406 28.082031 -19.4375 27.71875 -18.375 C 27.351562 -17.3125 26.828125 -16.351562 26.140625 -15.5 C 25.460938 -14.644531 24.648438 -13.910156 23.703125 -13.296875 C 22.753906 -12.679688 21.695312 -12.207031 20.53125 -11.875 C 19.363281 -11.550781 18.113281 -11.390625 16.78125 -11.390625 L 6.609375 -11.390625 L 6.609375 0 Z M 6.609375 -15.75 L 16.40625 -15.75 C 17.5 -15.75 18.484375 -15.890625 19.359375 -16.171875 C 20.242188 -16.453125 21 -16.851562 21.625 -17.375 C 22.25 -17.90625 22.726562 -18.535156 23.0625 -19.265625 C 23.394531 -20.003906 23.5625 -20.832031 23.5625 -21.75 C 23.5625 -22.664062 23.394531 -23.488281 23.0625 -24.21875 C 22.738281 -24.957031 22.265625 -25.582031 21.640625 -26.09375 C 21.023438 -26.613281 20.285156 -27.007812 19.421875 -27.28125 C 18.554688 -27.5625 17.582031 -27.703125 16.5 -27.703125 L 6.609375 -27.703125 Z M 6.609375 -15.75 "/></g></g></g><g clip-path="url(#f48a8392ed)"><g fill="#000000" fill-opacity="1"><g transform="translate(100.986469, 41.870532)"><g><path d="M 23.15625 -40.921875 L 18.296875 -33.75 L 15.15625 -33.75 L 18.671875 -40.921875 Z M 1.5625 -16.03125 C 1.5625 -18.019531 1.796875 -19.867188 2.265625 -21.578125 C 2.742188 -23.296875 3.421875 -24.835938 4.296875 -26.203125 C 5.179688 -27.578125 6.242188 -28.75 7.484375 -29.71875 C 8.734375 -30.695312 10.128906 -31.445312 11.671875 -31.96875 C 13.222656 -32.488281 14.898438 -32.75 16.703125 -32.75 C 18.503906 -32.75 20.179688 -32.488281 21.734375 -31.96875 C 23.285156 -31.445312 24.679688 -30.695312 25.921875 -29.71875 C 27.171875 -28.75 28.238281 -27.578125 29.125 -26.203125 C 30.007812 -24.835938 30.6875 -23.296875 31.15625 -21.578125 C 31.625 -19.867188 31.859375 -18.019531 31.859375 -16.03125 C 31.859375 -14.039062 31.625 -12.191406 31.15625 -10.484375 C 30.6875 -8.773438 30.007812 -7.234375 29.125 -5.859375 C 28.238281 -4.484375 27.171875 -3.3125 25.921875 -2.34375 C 24.679688 -1.375 23.285156 -0.628906 21.734375 -0.109375 C 20.179688 0.410156 18.503906 0.671875 16.703125 0.671875 C 14.898438 0.671875 13.222656 0.410156 11.671875 -0.109375 C 10.128906 -0.628906 8.734375 -1.375 7.484375 -2.34375 C 6.242188 -3.3125 5.179688 -4.484375 4.296875 -5.859375 C 3.421875 -7.234375 2.742188 -8.773438 2.265625 -10.484375 C 1.796875 -12.191406 1.5625 -14.039062 1.5625 -16.03125 Z M 6.28125 -16.03125 C 6.28125 -14.101562 6.515625 -12.378906 6.984375 -10.859375 C 7.460938 -9.335938 8.148438 -8.046875 9.046875 -6.984375 C 9.953125 -5.921875 11.046875 -5.109375 12.328125 -4.546875 C 13.617188 -3.984375 15.078125 -3.703125 16.703125 -3.703125 C 18.335938 -3.703125 19.800781 -3.984375 21.09375 -4.546875 C 22.382812 -5.109375 23.476562 -5.921875 24.375 -6.984375 C 25.28125 -8.046875 25.96875 -9.335938 26.4375 -10.859375 C 26.914062 -12.378906 27.15625 -14.101562 27.15625 -16.03125 C 27.15625 -17.96875 26.914062 -19.695312 26.4375 -21.21875 C 25.96875 -22.738281 25.28125 -24.03125 24.375 -25.09375 C 23.476562 -26.15625 22.382812 -26.96875 21.09375 -27.53125 C 19.800781 -28.09375 18.335938 -28.375 16.703125 -28.375 C 15.078125 -28.375 13.617188 -28.09375 12.328125 -27.53125 C 11.046875 -26.96875 9.953125 -26.15625 9.046875 -25.09375 C 8.148438 -24.03125 7.460938 -22.738281 6.984375 -21.21875 C 6.515625 -19.695312 6.28125 -17.96875 6.28125 -16.03125 Z M 6.28125 -16.03125 "/></g></g></g></g><g fill="#000000" fill-opacity="1"><g transform="translate(138.000599, 41.870532)"><g><path d="M 30.375 -32.078125 L 30.375 0 L 22.734375 0 L 6.5 -29.0625 L 6.5 0 L 1.90625 0 L 1.90625 -32.078125 L 10.234375 -32.078125 L 25.78125 -4.21875 L 25.78125 -32.078125 Z M 30.375 -32.078125 "/></g></g></g><g fill="#000000" fill-opacity="1"><g transform="translate(0.492162, 148.025004)"><g><path d="M 3.90625 -91.46875 L 47.625 -91.46875 C 51.207031 -91.46875 54.582031 -91.125 57.75 -90.4375 C 60.914062 -89.757812 63.832031 -88.78125 66.5 -87.5 C 69.164062 -86.226562 71.554688 -84.679688 73.671875 -82.859375 C 75.796875 -81.035156 77.597656 -78.972656 79.078125 -76.671875 C 80.554688 -74.367188 81.691406 -71.851562 82.484375 -69.125 C 83.273438 -66.394531 83.671875 -63.492188 83.671875 -60.421875 C 83.671875 -57.347656 83.273438 -54.441406 82.484375 -51.703125 C 81.691406 -48.960938 80.554688 -46.441406 79.078125 -44.140625 C 77.597656 -41.835938 75.789062 -39.769531 73.65625 -37.9375 C 71.53125 -36.101562 69.132812 -34.546875 66.46875 -33.265625 C 63.800781 -31.984375 60.882812 -31 57.71875 -30.3125 C 54.550781 -29.632812 51.1875 -29.296875 47.625 -29.296875 L 27.5 -29.296875 L 27.5 0 L 3.90625 0 Z M 46.53125 -48.109375 C 48.664062 -48.109375 50.566406 -48.382812 52.234375 -48.9375 C 53.910156 -49.488281 55.332031 -50.289062 56.5 -51.34375 C 57.664062 -52.40625 58.550781 -53.695312 59.15625 -55.21875 C 59.757812 -56.75 60.0625 -58.484375 60.0625 -60.421875 C 60.0625 -62.335938 59.757812 -64.054688 59.15625 -65.578125 C 58.550781 -67.109375 57.671875 -68.394531 56.515625 -69.4375 C 55.367188 -70.476562 53.960938 -71.273438 52.296875 -71.828125 C 50.628906 -72.390625 48.742188 -72.671875 46.640625 -72.671875 L 27.5 -72.671875 L 27.5 -48.109375 Z M 46.53125 -48.109375 "/></g></g></g><g fill="#000000" fill-opacity="1"><g transform="translate(89.983761, 148.025004)"><g><path d="M 3.90625 0 L 3.90625 -91.5 L 49.609375 -91.5 C 55.046875 -91.5 59.878906 -90.851562 64.109375 -89.5625 C 68.347656 -88.28125 71.921875 -86.429688 74.828125 -84.015625 C 77.734375 -81.609375 79.941406 -78.671875 81.453125 -75.203125 C 82.972656 -71.742188 83.734375 -67.835938 83.734375 -63.484375 C 83.734375 -59.710938 83.132812 -56.285156 81.9375 -53.203125 C 80.75 -50.117188 79.050781 -47.472656 76.84375 -45.265625 C 74.632812 -43.066406 71.96875 -41.335938 68.84375 -40.078125 C 65.71875 -38.816406 62.21875 -38.125 58.34375 -38 C 62.09375 -37.738281 65.394531 -36.410156 68.25 -34.015625 C 71.113281 -31.617188 73.566406 -28.140625 75.609375 -23.578125 L 86.203125 0 L 59.9375 0 L 49.15625 -23.546875 C 48.320312 -25.378906 47.53125 -26.882812 46.78125 -28.0625 C 46.039062 -29.25 45.238281 -30.179688 44.375 -30.859375 C 43.507812 -31.546875 42.539062 -32.019531 41.46875 -32.28125 C 40.394531 -32.550781 39.097656 -32.6875 37.578125 -32.6875 L 27.5 -32.6875 L 27.5 0 Z M 47.015625 -50.921875 C 49.109375 -50.921875 50.960938 -51.164062 52.578125 -51.65625 C 54.203125 -52.144531 55.566406 -52.859375 56.671875 -53.796875 C 57.785156 -54.734375 58.632812 -55.890625 59.21875 -57.265625 C 59.800781 -58.640625 60.09375 -60.203125 60.09375 -61.953125 C 60.09375 -65.453125 58.96875 -68.117188 56.71875 -69.953125 C 54.46875 -71.785156 51.222656 -72.703125 46.984375 -72.703125 L 27.5 -72.703125 L 27.5 -50.921875 Z M 47.015625 -50.921875 "/></g></g></g><g fill="#000000" fill-opacity="1"><g transform="translate(182.002146, 148.025004)"><g><path d="M 67.8125 -91.46875 L 67.8125 -71.90625 L 27.5 -71.90625 L 27.5 -54.796875 L 64.15625 -54.796875 L 64.15625 -36.5625 L 27.5 -36.5625 L 27.5 -19.578125 L 68.890625 -19.578125 L 68.890625 0 L 3.90625 0 L 3.90625 -91.46875 Z M 67.8125 -91.46875 "/></g></g></g><g fill="#000000" fill-opacity="1"><g transform="translate(256.685176, 148.025004)"><g><path d="M 113.984375 -91.46875 L 113.984375 0 L 90.390625 0 L 90.390625 -71.671875 L 70.171875 0 L 46.5 0 L 26.421875 -71.703125 L 26.421875 0 L 3.90625 0 L 3.90625 -91.46875 L 41.125 -91.46875 L 59.59375 -25.53125 L 78.140625 -91.46875 Z M 113.984375 -91.46875 "/></g></g></g><g fill="#000000" fill-opacity="1"><g transform="translate(378.416757, 148.025004)"><g><path d="M 27.5 0 L 3.90625 0 L 3.90625 -91.46875 L 27.5 -91.46875 Z M 27.5 0 "/></g></g></g><g fill="#000000" fill-opacity="1"><g transform="translate(413.023766, 148.025004)"><g><path d="M 3.90625 -91.46875 L 27.5 -91.46875 L 27.5 -38.578125 C 27.5 -34.953125 27.863281 -31.832031 28.59375 -29.21875 C 29.320312 -26.601562 30.394531 -24.453125 31.8125 -22.765625 C 33.226562 -21.085938 34.976562 -19.847656 37.0625 -19.046875 C 39.15625 -18.242188 41.554688 -17.84375 44.265625 -17.84375 C 46.992188 -17.84375 49.398438 -18.242188 51.484375 -19.046875 C 53.578125 -19.847656 55.328125 -21.085938 56.734375 -22.765625 C 58.140625 -24.453125 59.207031 -26.601562 59.9375 -29.21875 C 60.664062 -31.832031 61.03125 -34.953125 61.03125 -38.578125 L 61.03125 -91.46875 L 84.625 -91.46875 L 84.625 -36.46875 C 84.625 -30.300781 83.632812 -24.832031 81.65625 -20.0625 C 79.675781 -15.300781 76.898438 -11.289062 73.328125 -8.03125 C 69.753906 -4.769531 65.5 -2.296875 60.5625 -0.609375 C 55.625 1.078125 50.191406 1.921875 44.265625 1.921875 C 40.316406 1.921875 36.582031 1.539062 33.0625 0.78125 C 29.550781 0.0195312 26.296875 -1.09375 23.296875 -2.5625 C 20.304688 -4.03125 17.613281 -5.851562 15.21875 -8.03125 C 12.832031 -10.207031 10.796875 -12.71875 9.109375 -15.5625 C 7.429688 -18.40625 6.144531 -21.570312 5.25 -25.0625 C 4.351562 -28.550781 3.90625 -32.351562 3.90625 -36.46875 Z M 3.90625 -91.46875 "/></g></g></g><g fill="#000000" fill-opacity="1"><g transform="translate(504.754269, 148.025004)"><g><path d="M 113.984375 -91.46875 L 113.984375 0 L 90.390625 0 L 90.390625 -71.671875 L 70.171875 0 L 46.5 0 L 26.421875 -71.703125 L 26.421875 0 L 3.90625 0 L 3.90625 -91.46875 L 41.125 -91.46875 L 59.59375 -25.53125 L 78.140625 -91.46875 Z M 113.984375 -91.46875 "/></g></g></g><path stroke-linecap="butt" transform="matrix(0.743074, 0, 0, 0.743074, 184.730637, 24.460891)" fill="none" stroke-linejoin="miter" d="M -0.000226742 3.001741 L 582.367589 3.001741 " stroke="#000000" stroke-width="6" stroke-opacity="1" stroke-miterlimit="4"/><g fill="#000000" fill-opacity="1"><g transform="translate(622.911211, 67.045945)"><g><path d="M 9.78125 -16.171875 C 10.625 -16.171875 11.425781 -16.066406 12.1875 -15.859375 C 12.957031 -15.660156 13.675781 -15.367188 14.34375 -14.984375 C 15.007812 -14.609375 15.609375 -14.148438 16.140625 -13.609375 C 16.671875 -13.078125 17.128906 -12.476562 17.515625 -11.8125 C 17.898438 -11.15625 18.191406 -10.441406 18.390625 -9.671875 C 18.597656 -8.910156 18.703125 -8.109375 18.703125 -7.265625 C 18.703125 -6.410156 18.597656 -5.59375 18.390625 -4.8125 C 18.179688 -4.03125 17.878906 -3.300781 17.484375 -2.625 C 17.097656 -1.957031 16.632812 -1.347656 16.09375 -0.796875 C 15.550781 -0.253906 14.941406 0.207031 14.265625 0.59375 C 13.597656 0.988281 12.878906 1.289062 12.109375 1.5 C 11.335938 1.707031 10.523438 1.8125 9.671875 1.8125 C 8.835938 1.8125 8.035156 1.707031 7.265625 1.5 C 6.492188 1.289062 5.773438 0.992188 5.109375 0.609375 C 4.441406 0.222656 3.835938 -0.234375 3.296875 -0.765625 C 2.753906 -1.304688 2.289062 -1.910156 1.90625 -2.578125 C 1.519531 -3.253906 1.222656 -3.972656 1.015625 -4.734375 C 0.804688 -5.503906 0.703125 -6.3125 0.703125 -7.15625 C 0.703125 -8.007812 0.804688 -8.820312 1.015625 -9.59375 C 1.234375 -10.363281 1.535156 -11.082031 1.921875 -11.75 C 2.316406 -12.425781 2.785156 -13.035156 3.328125 -13.578125 C 3.867188 -14.117188 4.472656 -14.582031 5.140625 -14.96875 C 5.816406 -15.351562 6.546875 -15.648438 7.328125 -15.859375 C 8.109375 -16.066406 8.925781 -16.171875 9.78125 -16.171875 Z M 9.765625 -14.59375 C 9.066406 -14.59375 8.398438 -14.507812 7.765625 -14.34375 C 7.128906 -14.175781 6.539062 -13.9375 6 -13.625 C 5.457031 -13.3125 4.96875 -12.929688 4.53125 -12.484375 C 4.09375 -12.046875 3.71875 -11.550781 3.40625 -11 C 3.101562 -10.445312 2.867188 -9.847656 2.703125 -9.203125 C 2.546875 -8.566406 2.46875 -7.890625 2.46875 -7.171875 C 2.46875 -6.460938 2.546875 -5.785156 2.703125 -5.140625 C 2.867188 -4.503906 3.101562 -3.910156 3.40625 -3.359375 C 3.707031 -2.804688 4.070312 -2.3125 4.5 -1.875 C 4.925781 -1.4375 5.40625 -1.054688 5.9375 -0.734375 C 6.476562 -0.421875 7.054688 -0.179688 7.671875 -0.015625 C 8.296875 0.148438 8.953125 0.234375 9.640625 0.234375 C 10.335938 0.234375 11 0.148438 11.625 -0.015625 C 12.257812 -0.191406 12.847656 -0.4375 13.390625 -0.75 C 13.929688 -1.070312 14.421875 -1.457031 14.859375 -1.90625 C 15.296875 -2.363281 15.671875 -2.867188 15.984375 -3.421875 C 16.296875 -3.984375 16.535156 -4.59375 16.703125 -5.25 C 16.867188 -5.90625 16.953125 -6.585938 16.953125 -7.296875 C 16.953125 -8.003906 16.867188 -8.675781 16.703125 -9.3125 C 16.546875 -9.945312 16.316406 -10.535156 16.015625 -11.078125 C 15.710938 -11.617188 15.347656 -12.101562 14.921875 -12.53125 C 14.492188 -12.96875 14.015625 -13.335938 13.484375 -13.640625 C 12.953125 -13.953125 12.375 -14.1875 11.75 -14.34375 C 11.125 -14.507812 10.460938 -14.59375 9.765625 -14.59375 Z M 8.109375 -2.953125 L 6.375 -2.953125 L 6.375 -11.25 L 10.546875 -11.25 C 10.972656 -11.25 11.363281 -11.1875 11.71875 -11.0625 C 12.082031 -10.945312 12.394531 -10.78125 12.65625 -10.5625 C 12.914062 -10.34375 13.113281 -10.082031 13.25 -9.78125 C 13.394531 -9.488281 13.46875 -9.160156 13.46875 -8.796875 C 13.46875 -8.378906 13.367188 -8.007812 13.171875 -7.6875 C 12.984375 -7.363281 12.71875 -7.109375 12.375 -6.921875 C 12.03125 -6.742188 11.625 -6.648438 11.15625 -6.640625 C 11.757812 -6.585938 12.25 -6.148438 12.625 -5.328125 L 13.6875 -2.953125 L 11.828125 -2.953125 L 10.765625 -5.140625 C 10.671875 -5.335938 10.5625 -5.488281 10.4375 -5.59375 C 10.320312 -5.707031 10.175781 -5.785156 10 -5.828125 C 9.820312 -5.878906 9.597656 -5.90625 9.328125 -5.90625 L 8.109375 -5.90625 Z M 8.109375 -7.5625 L 10.0625 -7.5625 C 10.582031 -7.5625 10.988281 -7.648438 11.28125 -7.828125 C 11.582031 -8.015625 11.734375 -8.273438 11.734375 -8.609375 C 11.734375 -8.921875 11.585938 -9.160156 11.296875 -9.328125 C 11.003906 -9.503906 10.59375 -9.59375 10.0625 -9.59375 L 8.109375 -9.59375 Z M 8.109375 -7.5625 "/></g></g></g><g clip-path="url(#d758442904)"><g transform="matrix(1, 0, 0, 1, 415, 172)"><g clip-path="url(#62bbd48218)"><g fill="#000000" fill-opacity="1"><g transform="translate(0.813776, 27.129808)"><g><path d="M 18.34375 -25.671875 L 18.34375 -24.03125 L 3.703125 -24.03125 L 3.703125 -13.625 L 17.265625 -13.625 L 17.265625 -11.984375 L 3.703125 -11.984375 L 3.703125 -1.640625 L 18.703125 -1.640625 L 18.703125 0 L 1.953125 0 L 1.953125 -25.671875 Z M 18.34375 -25.671875 "/></g></g></g><g clip-path="url(#b9a619e564)"><g fill="#000000" fill-opacity="1"><g transform="translate(20.476334, 27.129808)"><g><path d="M 3.5625 0 L 1.84375 0 L 1.84375 -26.578125 L 3.5625 -26.578125 Z M 3.5625 0 "/></g></g></g></g><g fill="#000000" fill-opacity="1"><g transform="translate(25.899243, 27.129808)"><g><path d="M 19.140625 -6.15625 C 18.835938 -5.082031 18.421875 -4.128906 17.890625 -3.296875 C 17.359375 -2.472656 16.726562 -1.773438 16 -1.203125 C 15.28125 -0.628906 14.46875 -0.195312 13.5625 0.09375 C 12.65625 0.382812 11.675781 0.53125 10.625 0.53125 C 9.238281 0.53125 7.972656 0.28125 6.828125 -0.21875 C 5.691406 -0.71875 4.71875 -1.425781 3.90625 -2.34375 C 3.09375 -3.257812 2.460938 -4.359375 2.015625 -5.640625 C 1.566406 -6.929688 1.34375 -8.359375 1.34375 -9.921875 C 1.34375 -10.960938 1.441406 -11.941406 1.640625 -12.859375 C 1.835938 -13.785156 2.125 -14.632812 2.5 -15.40625 C 2.882812 -16.175781 3.34375 -16.863281 3.875 -17.46875 C 4.40625 -18.082031 5.007812 -18.601562 5.6875 -19.03125 C 6.375 -19.457031 7.125 -19.78125 7.9375 -20 C 8.75 -20.226562 9.613281 -20.34375 10.53125 -20.34375 C 11.363281 -20.34375 12.15625 -20.238281 12.90625 -20.03125 C 13.664062 -19.832031 14.363281 -19.539062 15 -19.15625 C 15.644531 -18.769531 16.226562 -18.289062 16.75 -17.71875 C 17.269531 -17.15625 17.710938 -16.507812 18.078125 -15.78125 C 18.453125 -15.0625 18.738281 -14.265625 18.9375 -13.390625 C 19.132812 -12.515625 19.234375 -11.570312 19.234375 -10.5625 C 19.234375 -10.207031 19.210938 -9.816406 19.171875 -9.390625 L 3.078125 -9.390625 C 3.117188 -8.117188 3.328125 -6.96875 3.703125 -5.9375 C 4.078125 -4.914062 4.59375 -4.039062 5.25 -3.3125 C 5.90625 -2.582031 6.691406 -2.019531 7.609375 -1.625 C 8.523438 -1.226562 9.539062 -1.03125 10.65625 -1.03125 C 12.300781 -1.03125 13.691406 -1.460938 14.828125 -2.328125 C 15.972656 -3.203125 16.84375 -4.476562 17.4375 -6.15625 Z M 17.5 -10.90625 C 17.476562 -12.132812 17.285156 -13.234375 16.921875 -14.203125 C 16.566406 -15.171875 16.082031 -15.992188 15.46875 -16.671875 C 14.851562 -17.347656 14.125 -17.863281 13.28125 -18.21875 C 12.445312 -18.582031 11.53125 -18.765625 10.53125 -18.765625 C 9.46875 -18.765625 8.492188 -18.578125 7.609375 -18.203125 C 6.734375 -17.835938 5.972656 -17.3125 5.328125 -16.625 C 4.691406 -15.945312 4.179688 -15.125 3.796875 -14.15625 C 3.410156 -13.1875 3.175781 -12.101562 3.09375 -10.90625 Z M 17.5 -10.90625 "/></g></g></g><g fill="#000000" fill-opacity="1"><g transform="translate(45.48095, 27.129808)"><g><path d="M 19.390625 -19.796875 L 11.140625 0 L 8.671875 0 L 0.5625 -19.796875 L 2.359375 -19.796875 L 9.921875 -1.296875 L 17.609375 -19.796875 Z M 19.390625 -19.796875 "/></g></g></g><g fill="#000000" fill-opacity="1"><g transform="translate(64.470082, 27.129808)"><g><path d="M 1.78125 -13.5 C 1.78125 -14.539062 1.976562 -15.476562 2.375 -16.3125 C 2.78125 -17.15625 3.351562 -17.875 4.09375 -18.46875 C 4.832031 -19.070312 5.726562 -19.535156 6.78125 -19.859375 C 7.832031 -20.179688 9 -20.34375 10.28125 -20.34375 C 11.6875 -20.34375 12.941406 -20.144531 14.046875 -19.75 C 15.148438 -19.363281 16.085938 -18.800781 16.859375 -18.0625 C 17.640625 -17.332031 18.234375 -16.4375 18.640625 -15.375 C 19.046875 -14.3125 19.25 -13.101562 19.25 -11.75 L 19.25 0 L 17.53125 0 L 17.53125 -5.734375 C 17.363281 -5.128906 17.117188 -4.554688 16.796875 -4.015625 C 16.472656 -3.472656 16.082031 -2.96875 15.625 -2.5 C 15.175781 -2.039062 14.671875 -1.625 14.109375 -1.25 C 13.546875 -0.875 12.941406 -0.550781 12.296875 -0.28125 C 11.648438 -0.0195312 10.972656 0.175781 10.265625 0.3125 C 9.554688 0.457031 8.828125 0.53125 8.078125 0.53125 C 7.035156 0.53125 6.085938 0.394531 5.234375 0.125 C 4.390625 -0.144531 3.664062 -0.53125 3.0625 -1.03125 C 2.46875 -1.539062 2.003906 -2.148438 1.671875 -2.859375 C 1.347656 -3.578125 1.1875 -4.367188 1.1875 -5.234375 C 1.1875 -6.972656 1.859375 -8.285156 3.203125 -9.171875 C 4.546875 -10.066406 6.535156 -10.515625 9.171875 -10.515625 L 17.53125 -10.515625 L 17.53125 -11.75 C 17.53125 -12.851562 17.363281 -13.835938 17.03125 -14.703125 C 16.707031 -15.578125 16.234375 -16.3125 15.609375 -16.90625 C 14.984375 -17.507812 14.21875 -17.96875 13.3125 -18.28125 C 12.414062 -18.601562 11.394531 -18.765625 10.25 -18.765625 C 9.195312 -18.765625 8.25 -18.640625 7.40625 -18.390625 C 6.570312 -18.140625 5.863281 -17.785156 5.28125 -17.328125 C 4.707031 -16.867188 4.265625 -16.316406 3.953125 -15.671875 C 3.648438 -15.023438 3.5 -14.300781 3.5 -13.5 Z M 9.15625 -9.015625 C 8.09375 -9.015625 7.164062 -8.9375 6.375 -8.78125 C 5.59375 -8.632812 4.941406 -8.40625 4.421875 -8.09375 C 3.910156 -7.789062 3.53125 -7.398438 3.28125 -6.921875 C 3.03125 -6.453125 2.90625 -5.898438 2.90625 -5.265625 C 2.90625 -4.609375 3.03125 -4.015625 3.28125 -3.484375 C 3.53125 -2.953125 3.894531 -2.503906 4.375 -2.140625 C 4.851562 -1.773438 5.4375 -1.492188 6.125 -1.296875 C 6.8125 -1.097656 7.585938 -1 8.453125 -1 C 9.253906 -1 10.035156 -1.082031 10.796875 -1.25 C 11.554688 -1.414062 12.273438 -1.648438 12.953125 -1.953125 C 13.628906 -2.253906 14.242188 -2.613281 14.796875 -3.03125 C 15.359375 -3.445312 15.84375 -3.90625 16.25 -4.40625 C 16.65625 -4.914062 16.96875 -5.457031 17.1875 -6.03125 C 17.414062 -6.601562 17.53125 -7.1875 17.53125 -7.78125 L 17.53125 -9.015625 Z M 9.15625 -9.015625 "/></g></g></g><g fill="#000000" fill-opacity="1"><g transform="translate(85.470404, 27.129808)"><g/></g></g><g fill="#000000" fill-opacity="1"><g transform="translate(93.191767, 27.129808)"><g><path d="M 12.890625 -0.03125 C 12.242188 0.15625 11.632812 0.296875 11.0625 0.390625 C 10.488281 0.484375 9.945312 0.53125 9.4375 0.53125 C 7.707031 0.53125 6.390625 -0.015625 5.484375 -1.109375 C 4.578125 -2.203125 4.125 -3.820312 4.125 -5.96875 L 4.125 -18.296875 L 0.953125 -18.296875 L 0.953125 -19.796875 L 4.125 -19.796875 L 4.125 -24.359375 L 5.84375 -24.359375 L 5.84375 -19.796875 L 12.890625 -19.796875 L 12.890625 -18.296875 L 5.84375 -18.296875 L 5.84375 -5.953125 C 5.84375 -4.296875 6.15625 -3.054688 6.78125 -2.234375 C 7.40625 -1.421875 8.375 -1.015625 9.6875 -1.015625 C 10.550781 -1.015625 11.617188 -1.195312 12.890625 -1.5625 Z M 12.890625 -0.03125 "/></g></g></g><g fill="#000000" fill-opacity="1"><g transform="translate(107.44039, 27.129808)"><g><path d="M 17.28125 -19.796875 L 19 -19.796875 L 19 0 L 17.28125 0 L 17.28125 -6.046875 C 17.03125 -5.046875 16.660156 -4.140625 16.171875 -3.328125 C 15.679688 -2.523438 15.085938 -1.835938 14.390625 -1.265625 C 13.703125 -0.691406 12.925781 -0.25 12.0625 0.0625 C 11.207031 0.375 10.285156 0.53125 9.296875 0.53125 C 8.148438 0.53125 7.113281 0.320312 6.1875 -0.09375 C 5.257812 -0.519531 4.46875 -1.125 3.8125 -1.90625 C 3.15625 -2.695312 2.648438 -3.648438 2.296875 -4.765625 C 1.941406 -5.878906 1.765625 -7.125 1.765625 -8.5 L 1.765625 -19.796875 L 3.484375 -19.796875 L 3.484375 -8.5 C 3.484375 -7.332031 3.628906 -6.285156 3.921875 -5.359375 C 4.210938 -4.429688 4.628906 -3.644531 5.171875 -3 C 5.722656 -2.363281 6.394531 -1.875 7.1875 -1.53125 C 7.976562 -1.195312 8.878906 -1.03125 9.890625 -1.03125 C 10.972656 -1.03125 11.96875 -1.222656 12.875 -1.609375 C 13.789062 -2.003906 14.570312 -2.550781 15.21875 -3.25 C 15.875 -3.957031 16.378906 -4.800781 16.734375 -5.78125 C 17.097656 -6.757812 17.28125 -7.84375 17.28125 -9.03125 Z M 17.28125 -19.796875 "/></g></g></g><g fill="#000000" fill-opacity="1"><g transform="translate(128.297062, 27.129808)"><g/></g></g><g fill="#000000" fill-opacity="1"><g transform="translate(136.018425, 27.129808)"><g><path d="M 23.390625 -25.6875 L 13.0625 0 L 10.59375 0 L 0.375 -25.6875 L 2.25 -25.6875 L 11.84375 -1.515625 L 21.53125 -25.6875 Z M 23.390625 -25.6875 "/></g></g></g><g fill="#000000" fill-opacity="1"><g transform="translate(159.766126, 27.129808)"><g><path d="M 3.953125 -23.171875 L 1.484375 -23.171875 L 1.484375 -25.984375 L 3.953125 -25.984375 Z M 3.578125 0 L 1.859375 0 L 1.859375 -19.796875 L 3.578125 -19.796875 Z M 3.578125 0 "/></g></g></g><g clip-path="url(#692c6cd8f4)"><g fill="#000000" fill-opacity="1"><g transform="translate(165.189035, 27.129808)"><g><path d="M 19.390625 -26.578125 L 19.390625 0 L 17.671875 0 L 17.671875 -6.625 C 17.429688 -5.539062 17.066406 -4.554688 16.578125 -3.671875 C 16.085938 -2.796875 15.5 -2.039062 14.8125 -1.40625 C 14.132812 -0.78125 13.363281 -0.300781 12.5 0.03125 C 11.644531 0.363281 10.71875 0.53125 9.71875 0.53125 C 8.894531 0.53125 8.113281 0.414062 7.375 0.1875 C 6.644531 -0.0390625 5.96875 -0.367188 5.34375 -0.796875 C 4.726562 -1.234375 4.171875 -1.753906 3.671875 -2.359375 C 3.179688 -2.972656 2.757812 -3.664062 2.40625 -4.4375 C 2.0625 -5.21875 1.796875 -6.066406 1.609375 -6.984375 C 1.429688 -7.898438 1.34375 -8.875 1.34375 -9.90625 C 1.34375 -10.9375 1.429688 -11.910156 1.609375 -12.828125 C 1.796875 -13.742188 2.0625 -14.585938 2.40625 -15.359375 C 2.757812 -16.128906 3.179688 -16.820312 3.671875 -17.4375 C 4.171875 -18.050781 4.726562 -18.570312 5.34375 -19 C 5.96875 -19.4375 6.644531 -19.769531 7.375 -20 C 8.113281 -20.226562 8.894531 -20.34375 9.71875 -20.34375 C 10.71875 -20.34375 11.644531 -20.171875 12.5 -19.828125 C 13.363281 -19.492188 14.132812 -19.015625 14.8125 -18.390625 C 15.5 -17.765625 16.085938 -17.007812 16.578125 -16.125 C 17.066406 -15.25 17.429688 -14.269531 17.671875 -13.1875 L 17.671875 -26.578125 Z M 17.671875 -9.90625 C 17.671875 -11.21875 17.484375 -12.414062 17.109375 -13.5 C 16.742188 -14.59375 16.226562 -15.53125 15.5625 -16.3125 C 14.90625 -17.101562 14.113281 -17.710938 13.1875 -18.140625 C 12.269531 -18.578125 11.257812 -18.796875 10.15625 -18.796875 C 9.0625 -18.796875 8.078125 -18.585938 7.203125 -18.171875 C 6.335938 -17.753906 5.59375 -17.160156 4.96875 -16.390625 C 4.351562 -15.617188 3.878906 -14.6875 3.546875 -13.59375 C 3.222656 -12.5 3.0625 -11.269531 3.0625 -9.90625 C 3.0625 -8.539062 3.226562 -7.3125 3.5625 -6.21875 C 3.894531 -5.125 4.367188 -4.1875 4.984375 -3.40625 C 5.597656 -2.632812 6.34375 -2.039062 7.21875 -1.625 C 8.09375 -1.207031 9.070312 -1 10.15625 -1 C 11.257812 -1 12.269531 -1.21875 13.1875 -1.65625 C 14.113281 -2.09375 14.90625 -2.703125 15.5625 -3.484375 C 16.226562 -4.273438 16.742188 -5.210938 17.109375 -6.296875 C 17.484375 -7.390625 17.671875 -8.59375 17.671875 -9.90625 Z M 17.671875 -9.90625 "/></g></g></g></g><g fill="#000000" fill-opacity="1"><g transform="translate(186.431771, 27.129808)"><g><path d="M 1.78125 -13.5 C 1.78125 -14.539062 1.976562 -15.476562 2.375 -16.3125 C 2.78125 -17.15625 3.351562 -17.875 4.09375 -18.46875 C 4.832031 -19.070312 5.726562 -19.535156 6.78125 -19.859375 C 7.832031 -20.179688 9 -20.34375 10.28125 -20.34375 C 11.6875 -20.34375 12.941406 -20.144531 14.046875 -19.75 C 15.148438 -19.363281 16.085938 -18.800781 16.859375 -18.0625 C 17.640625 -17.332031 18.234375 -16.4375 18.640625 -15.375 C 19.046875 -14.3125 19.25 -13.101562 19.25 -11.75 L 19.25 0 L 17.53125 0 L 17.53125 -5.734375 C 17.363281 -5.128906 17.117188 -4.554688 16.796875 -4.015625 C 16.472656 -3.472656 16.082031 -2.96875 15.625 -2.5 C 15.175781 -2.039062 14.671875 -1.625 14.109375 -1.25 C 13.546875 -0.875 12.941406 -0.550781 12.296875 -0.28125 C 11.648438 -0.0195312 10.972656 0.175781 10.265625 0.3125 C 9.554688 0.457031 8.828125 0.53125 8.078125 0.53125 C 7.035156 0.53125 6.085938 0.394531 5.234375 0.125 C 4.390625 -0.144531 3.664062 -0.53125 3.0625 -1.03125 C 2.46875 -1.539062 2.003906 -2.148438 1.671875 -2.859375 C 1.347656 -3.578125 1.1875 -4.367188 1.1875 -5.234375 C 1.1875 -6.972656 1.859375 -8.285156 3.203125 -9.171875 C 4.546875 -10.066406 6.535156 -10.515625 9.171875 -10.515625 L 17.53125 -10.515625 L 17.53125 -11.75 C 17.53125 -12.851562 17.363281 -13.835938 17.03125 -14.703125 C 16.707031 -15.578125 16.234375 -16.3125 15.609375 -16.90625 C 14.984375 -17.507812 14.21875 -17.96875 13.3125 -18.28125 C 12.414062 -18.601562 11.394531 -18.765625 10.25 -18.765625 C 9.195312 -18.765625 8.25 -18.640625 7.40625 -18.390625 C 6.570312 -18.140625 5.863281 -17.785156 5.28125 -17.328125 C 4.707031 -16.867188 4.265625 -16.316406 3.953125 -15.671875 C 3.648438 -15.023438 3.5 -14.300781 3.5 -13.5 Z M 9.15625 -9.015625 C 8.09375 -9.015625 7.164062 -8.9375 6.375 -8.78125 C 5.59375 -8.632812 4.941406 -8.40625 4.421875 -8.09375 C 3.910156 -7.789062 3.53125 -7.398438 3.28125 -6.921875 C 3.03125 -6.453125 2.90625 -5.898438 2.90625 -5.265625 C 2.90625 -4.609375 3.03125 -4.015625 3.28125 -3.484375 C 3.53125 -2.953125 3.894531 -2.503906 4.375 -2.140625 C 4.851562 -1.773438 5.4375 -1.492188 6.125 -1.296875 C 6.8125 -1.097656 7.585938 -1 8.453125 -1 C 9.253906 -1 10.035156 -1.082031 10.796875 -1.25 C 11.554688 -1.414062 12.273438 -1.648438 12.953125 -1.953125 C 13.628906 -2.253906 14.242188 -2.613281 14.796875 -3.03125 C 15.359375 -3.445312 15.84375 -3.90625 16.25 -4.40625 C 16.65625 -4.914062 16.96875 -5.457031 17.1875 -6.03125 C 17.414062 -6.601562 17.53125 -7.1875 17.53125 -7.78125 L 17.53125 -9.015625 Z M 9.15625 -9.015625 "/></g></g></g></g></g></g></g></g></svg>